<svg width="110" height="123" viewBox="0 0 110 123" fill="none" xmlns="http://www.w3.org/2000/svg">
<path fill-rule="evenodd" clip-rule="evenodd" d="M1.87 14.69H24.53L24.5 14.3V4.13C24.5 1.86 26.86 0 29.76 0C32.65 0 35.02 1.87 35.02 4.13V14.3L34.99 14.69H73.58L73.55 14.3V4.13C73.55 1.86 75.91 0 78.8 0C81.69 0 84.06 1.87 84.06 4.13V14.3L84.03 14.69H108.14C109.17 14.69 110.01 15.53 110.01 16.56V36.02C110.01 37.05 109.17 37.89 108.14 37.89H1.87C0.84 37.88 0 37.04 0 36.01V16.55C0 15.52 0.84 14.69 1.87 14.69ZM0.47 42.19H109.55C109.81 42.19 110.01 42.4 110.01 42.65V122.41C110.01 122.66 109.8 122.87 109.55 122.87H0.47C0.22 122.87 0 122.66 0 122.41V42.66C0 42.4 0.21 42.19 0.47 42.19ZM97.27 52.76H83.57C82.74 52.76 82.07 53.39 82.07 54.16V66.9C82.07 67.67 82.74 68.3 83.57 68.3H97.28C98.11 68.3 98.79 67.67 98.79 66.9V54.16C98.78 53.39 98.1 52.76 97.27 52.76ZM12.24 74.93H25.94C26.77 74.93 27.45 75.56 27.45 76.33V89.07C27.45 89.84 26.77 90.47 25.94 90.47H12.71C11.88 90.47 11.21 89.84 11.21 89.07V75.87C11.21 75.1 11.89 74.47 12.71 74.47L12.24 74.93ZM12.24 97.11H25.94C26.77 97.11 27.45 97.74 27.45 98.51V111.25C27.45 112.02 26.77 112.65 25.94 112.65H12.7C11.87 112.65 11.2 112.02 11.2 111.25V98.51C11.2 97.74 11.88 97.11 12.7 97.11H12.24ZM12.24 52.76H25.94C26.77 52.76 27.45 53.39 27.45 54.16V66.9C27.45 67.67 26.77 68.3 25.94 68.3H12.7C11.87 68.3 11.2 67.67 11.2 66.9V54.16C11.2 53.39 11.88 52.76 12.7 52.76H12.24ZM36.02 52.76H49.73C50.56 52.76 51.23 53.39 51.23 54.16V66.9C51.23 67.67 50.55 68.3 49.73 68.3H36.02C35.19 68.3 34.51 67.67 34.51 66.9V54.16C34.51 53.39 35.19 52.76 36.02 52.76ZM36.02 74.93H49.73C50.56 74.93 51.23 75.56 51.23 76.33V89.07C51.23 89.84 50.55 90.47 49.73 90.47H36.02C35.19 90.47 34.51 89.84 34.51 89.07V75.87C34.51 75.1 35.19 74.47 36.02 74.47V74.93ZM36.02 97.11H49.73C50.56 97.11 51.23 97.74 51.23 98.51V111.25C51.23 112.02 50.55 112.65 49.73 112.65H36.02C35.19 112.65 34.51 112.02 34.51 111.25V98.51C34.51 97.74 35.19 97.11 36.02 97.11ZM59.79 52.76H73.5C74.33 52.76 75.01 53.39 75.01 54.16V66.9C75.01 67.67 74.33 68.3 73.5 68.3H59.79C58.96 68.3 58.28 67.67 58.28 66.9V54.16C58.29 53.39 58.96 52.76 59.79 52.76ZM59.79 74.93H73.5C74.33 74.93 75.01 75.56 75.01 76.33V89.07C75.01 89.84 74.33 90.47 73.5 90.47H59.79C58.96 90.47 58.28 89.84 58.28 89.07V75.87C58.28 75.1 58.96 74.47 59.79 74.47V74.93ZM97.27 74.93H83.57C82.74 74.93 82.07 75.56 82.07 76.33V89.07C82.07 89.84 82.74 90.47 83.57 90.47H97.28C98.11 90.47 98.79 89.84 98.79 89.07V75.86C98.79 75.09 98.11 74.46 97.28 74.46L97.27 74.93ZM97.27 97.11H83.57C82.74 97.11 82.07 97.74 82.07 98.51V111.25C82.07 112.02 82.74 112.65 83.57 112.65H97.28C98.11 112.65 98.79 112.02 98.79 111.25V98.04C98.79 97.27 98.11 96.64 97.28 96.64L97.27 97.11ZM59.79 97.11H73.5C74.33 97.11 75.01 97.74 75.01 98.51V111.25C75.01 112.02 74.33 112.65 73.5 112.65H59.79C58.96 112.65 58.28 112.02 58.28 111.25V98.51C58.29 97.74 58.96 97.11 59.79 97.11ZM7.01 47.71H103.93C104.45 47.71 104.87 48.15 104.87 48.65V116.42C104.87 116.92 104.43 117.36 103.93 117.36H6.08C5.58 117.36 5.14 116.94 5.14 116.42V49.58C5.14 48.55 5.98 47.71 7.01 47.71ZM78.8 29.4C81.69 29.4 84.06 27.53 84.06 25.27V15.11L84.03 14.7H73.58L73.55 15.11V25.27C73.55 27.54 75.91 29.4 78.8 29.4ZM29.76 29.4C32.65 29.4 35.02 27.53 35.02 25.27V15.11L34.99 14.7H24.53L24.5 15.11V25.27C24.5 27.54 26.86 29.4 29.76 29.4Z" fill="#87C540"/>
</svg>
