<svg width="800" height="800" viewBox="0 0 800 800" fill="none" xmlns="http://www.w3.org/2000/svg">
<g clip-path="url(#clip0_381_113)">
<path d="M400 0C178.814 0 0 178.814 0 400C0 621.186 178.814 800 400 800C621.186 800 800 621.186 800 400C800 178.814 621.186 0 400 0ZM279.264 54.4785C258.16 84.09 240.164 115.337 225.112 148.057H134.315C173.906 106.176 223.476 73.7832 279.264 54.4785ZM105.685 182.086H210.716C186.012 245.726 172.434 313.62 170.47 382.986H34.5194C37.955 307.894 63.8037 238.691 105.685 182.086ZM105.685 617.914C63.8037 561.309 37.955 492.106 34.5194 417.014H170.47C172.434 486.38 186.503 554.274 211.37 617.914H105.685ZM134.315 651.943H225.93C241.145 684.663 259.141 716.237 279.918 745.849C223.967 726.544 174.07 693.988 134.315 651.943ZM382.986 765.644C365.971 764.826 349.121 762.863 332.761 759.918C305.603 726.38 282.372 690.225 263.558 652.106H382.986V765.644ZM382.986 617.914H248.016C221.677 554.438 206.626 486.544 204.499 417.014H382.986V617.914ZM382.986 382.986H204.499C206.626 313.62 221.513 245.562 247.689 182.086H382.986V382.986ZM383.149 148.057H382.986H263.231C282.209 109.611 305.44 73.456 332.761 40.2454C349.121 37.137 365.971 35.3374 383.149 34.5194V148.057ZM694.315 182.086C736.196 238.691 762.209 307.73 765.481 382.986H629.53C627.566 313.62 613.497 245.726 588.63 182.086H694.315ZM665.685 148.057H574.07C558.855 115.337 540.859 83.7628 519.918 54.1513C576.033 73.456 625.93 106.012 665.685 148.057ZM417.014 34.5194C434.029 35.3374 450.879 37.3006 467.239 40.2454C494.397 73.7832 517.628 109.939 536.442 148.057H417.014V34.5194ZM417.014 182.086H551.984C578.323 245.399 593.374 313.456 595.501 382.986H417.014V182.086ZM417.014 417.014H595.501C593.374 486.38 578.487 554.438 552.311 617.914H417.014V417.014ZM416.851 765.481V651.943H417.014H536.769C517.791 690.389 494.56 726.544 467.239 759.755C450.879 762.863 434.029 764.663 416.851 765.481ZM519.918 745.849C540.695 716.237 558.691 684.663 573.742 651.943H665.849C625.93 693.988 576.033 726.544 519.918 745.849ZM588.139 617.914C612.679 554.274 626.585 486.38 629.366 417.014H765.644C762.209 492.106 736.36 561.309 694.479 617.914H588.139Z" fill="#87C540"/>
</g>
<defs>
<clipPath id="clip0_381_113">
<rect width="800" height="800" fill="white"/>
</clipPath>
</defs>
</svg>
