<svg width="23" height="23" viewBox="0 0 23 23" fill="none" xmlns="http://www.w3.org/2000/svg">
<g clip-path="url(#clip0_183_2503)">
<path d="M11.5 13.5125C10.4219 13.5125 9.48755 12.65 9.48755 11.5C9.48755 10.4219 10.35 9.48749 11.5 9.48749C12.5782 9.48749 13.5125 10.35 13.5125 11.5C13.5125 12.5781 12.5782 13.5125 11.5 13.5125Z" fill="#87C540"/>
<path fill-rule="evenodd" clip-rule="evenodd" d="M13.9438 6.61249H9.0563C8.4813 6.68436 8.1938 6.75624 7.97817 6.82811C7.69067 6.89999 7.47505 7.04374 7.25942 7.25936C7.0888 7.42999 7.00818 7.60063 6.91075 7.80683C6.88507 7.86117 6.85815 7.91817 6.82817 7.97811C6.81705 8.01146 6.80422 8.04654 6.79045 8.08413C6.71527 8.28955 6.61255 8.57022 6.61255 9.05624V13.9437C6.68442 14.5187 6.7563 14.8062 6.82817 15.0219C6.90005 15.3094 7.0438 15.525 7.25942 15.7406C7.43006 15.9112 7.60069 15.9918 7.8069 16.0893C7.86131 16.115 7.91816 16.1419 7.97817 16.1719C8.01152 16.183 8.0466 16.1958 8.08419 16.2096C8.28961 16.2848 8.57028 16.3875 9.0563 16.3875H13.9438C14.5188 16.3156 14.8063 16.2437 15.0219 16.1719C15.3094 16.1 15.525 15.9562 15.7407 15.7406C15.9113 15.57 15.9919 15.3994 16.0893 15.1931C16.1151 15.1387 16.142 15.0819 16.1719 15.0219C16.1831 14.9885 16.1959 14.9534 16.2097 14.9158C16.2848 14.7104 16.3875 14.4298 16.3875 13.9437V9.05624C16.3157 8.48124 16.2438 8.19374 16.1719 7.97811C16.1 7.69061 15.9563 7.47499 15.7407 7.25936C15.57 7.08874 15.3994 7.00812 15.1932 6.91068C15.1389 6.88502 15.0818 6.85806 15.0219 6.82811C14.9886 6.81699 14.9535 6.80415 14.9159 6.79039C14.7105 6.7152 14.4298 6.61249 13.9438 6.61249ZM11.5 8.40936C9.77505 8.40936 8.40942 9.77499 8.40942 11.5C8.40942 13.225 9.77505 14.5906 11.5 14.5906C13.225 14.5906 14.5907 13.225 14.5907 11.5C14.5907 9.77499 13.225 8.40936 11.5 8.40936ZM15.3813 8.33749C15.3813 8.73445 15.0595 9.05624 14.6625 9.05624C14.2656 9.05624 13.9438 8.73445 13.9438 8.33749C13.9438 7.94052 14.2656 7.61874 14.6625 7.61874C15.0595 7.61874 15.3813 7.94052 15.3813 8.33749Z" fill="#87C540"/>
</g>
<defs>
<clipPath id="clip0_183_2503">
<rect width="23" height="23" fill="white"/>
</clipPath>
</defs>
</svg>
