<svg width="11" height="13" viewBox="0 0 11 13" fill="none" xmlns="http://www.w3.org/2000/svg">
<path fill-rule="evenodd" clip-rule="evenodd" d="M1.04272 3.86163C0.77709 3.07459 0.99742 2.16713 1.6635 1.5989L1.97414 1.3339C2.83769 0.597219 4.12347 0.709695 4.846 1.58513C5.56853 2.46056 5.45421 3.76743 4.59066 4.50412L4.28002 4.76912C3.96285 5.03969 3.58872 5.19571 3.20647 5.24146C3.51077 6.14967 3.95124 7.15308 4.53097 7.85549C5.05479 8.49015 5.8364 9.05367 6.59228 9.49755C6.70129 9.11581 6.91923 8.76142 7.24154 8.48647L7.61472 8.16811C8.47828 7.43142 9.76406 7.5439 10.4866 8.41933C11.2091 9.29476 11.0948 10.6016 10.2312 11.3383L9.85806 11.6567C9.28092 12.149 8.51521 12.2621 7.85507 12.0216C7.84228 12.0604 7.84222 12.0604 7.84216 12.0604L7.83801 12.0588L7.82946 12.0555L7.80049 12.0441C7.77603 12.0344 7.74144 12.0206 7.69774 12.0026C7.6104 11.9667 7.48643 11.9144 7.33419 11.8464C7.03036 11.7106 6.61049 11.5111 6.14258 11.2538C5.22742 10.7507 4.04292 9.98118 3.21503 8.97809C2.38714 7.97501 1.84741 6.65544 1.51897 5.6518C1.35104 5.13864 1.23063 4.6836 1.15194 4.35584C1.1125 4.1916 1.08332 4.05839 1.06371 3.9647C1.05475 3.92187 1.04777 3.88725 1.04272 3.86163Z" fill="#87C540"/>
</svg>
