<svg width="11" height="12" viewBox="0 0 11 12" fill="none" xmlns="http://www.w3.org/2000/svg">
<g clip-path="url(#clip0_183_2516)">
<path d="M7.52605 8.98242C7.64349 8.04297 7.02217 7.44336 5.38005 6.93359C4.58509 6.66992 4.20969 6.32422 4.21872 5.84766C4.25185 5.32031 4.75673 4.93555 5.42723 4.92285C5.89196 4.93164 6.40788 5.04199 6.90875 5.36816C6.96797 5.4043 7.01013 5.39941 7.04426 5.34863C7.09043 5.27637 7.20586 5.10156 7.245 5.03906C7.2711 4.99805 7.27612 4.94531 7.20987 4.89844C7.11452 4.83008 6.84853 4.69043 6.70499 4.63281C6.31554 4.47461 5.87891 4.375 5.41418 4.37598C4.43353 4.37988 3.66064 4.9834 3.5954 5.78906C3.55324 6.37012 3.84935 6.84277 4.48472 7.20215C4.61922 7.27832 5.34793 7.56055 5.63801 7.64844C6.54941 7.9248 7.02318 8.41992 6.91176 8.99707C6.81038 9.52051 6.24427 9.85938 5.46336 9.86914C4.84406 9.8457 4.28798 9.60059 3.85537 9.27344C3.84433 9.26562 3.79013 9.22461 3.7831 9.21875C3.7299 9.17773 3.67169 9.18066 3.63555 9.2334C3.60945 9.27246 3.44283 9.50684 3.40068 9.56836C3.36153 9.62207 3.38261 9.65234 3.42376 9.68555C3.60443 9.83203 3.84333 9.99219 4.00694 10.0732C4.45561 10.2959 4.94242 10.418 5.46035 10.4365C5.79359 10.458 6.21316 10.3887 6.52733 10.2598C7.08942 10.0264 7.45278 9.5625 7.52605 8.98242ZM5.4995 0.701172C4.43654 0.701172 3.57031 1.67578 3.53016 2.89551H7.46984C7.42869 1.67578 6.56246 0.701172 5.4995 0.701172ZM9.53454 12H9.49339L1.38115 11.999C0.82909 11.9785 0.423579 11.5439 0.368373 11.0039L0.363354 10.9062L0.00100374 3.14258C0 3.13672 0 3.13086 0 3.125C0 3 0.103385 2.89746 0.23086 2.89551H2.78839C2.85163 1.28418 4.04106 0 5.4995 0C6.95793 0 8.14837 1.28418 8.2106 2.89551H10.7601H10.7641C10.8946 2.89551 11 2.99805 11 3.125C11 3.12891 11 3.13281 11 3.13672L10.6025 10.9307L10.5985 10.9971C10.5513 11.5439 10.0966 11.9854 9.53454 12Z" fill="#87C540"/>
</g>
<defs>
<clipPath id="clip0_183_2516">
<rect width="11" height="12" fill="white"/>
</clipPath>
</defs>
</svg>
